<svg width="16" height="16" viewBox="0 0 16 16" fill="none" xmlns="http://www.w3.org/2000/svg">
<path d="M8.23245 0C9.69169 0 11.0089 0.325203 12.184 0.975609C13.3721 1.62602 14.3019 2.50406 14.9734 3.60976C15.6578 4.71545 16 5.9252 16 7.23902C16 8.25366 15.7869 9.13171 15.3608 9.87317C14.9475 10.6016 14.3664 11.161 13.6174 11.5512C12.8684 11.9285 12.0097 12.1171 11.0412 12.1171H10.5763V10.8488C10.2793 11.3171 9.86602 11.6813 9.33656 11.9415C8.82002 12.2016 8.25182 12.3317 7.63196 12.3317C6.89588 12.3317 6.23729 12.1496 5.65617 11.7854C5.07506 11.4211 4.61663 10.9268 4.28087 10.3024C3.94512 9.66504 3.77724 8.9561 3.77724 8.17561C3.77724 7.40813 3.93866 6.71219 4.2615 6.0878C4.59726 5.45041 5.06215 4.94959 5.65617 4.58537C6.2502 4.22114 6.91525 4.03902 7.65133 4.03902C8.23245 4.03902 8.76836 4.1561 9.25908 4.39024C9.76271 4.61138 10.163 4.92358 10.46 5.32683V4.19512H11.8547V10.7902C12.707 10.7252 13.385 10.387 13.8886 9.77561C14.3923 9.16423 14.6441 8.3187 14.6441 7.23902C14.6441 6.12033 14.3729 5.1122 13.8305 4.21463C13.3011 3.30406 12.5521 2.58862 11.5835 2.06829C10.615 1.54797 9.5109 1.2878 8.27119 1.2878C6.96691 1.2878 5.79177 1.58049 4.74576 2.16585C3.69976 2.73821 2.87974 3.53171 2.28571 4.54634C1.69169 5.56098 1.39467 6.71219 1.39467 8C1.39467 9.28781 1.69169 10.4455 2.28571 11.4732C2.89266 12.4878 3.70622 13.2813 4.72639 13.8537C5.75948 14.439 6.90234 14.7317 8.15496 14.7317C9.04601 14.7317 9.88539 14.5886 10.6731 14.3024L10.9443 15.4732C10.0533 15.8244 9.07829 16 8.01937 16C6.54722 16 5.19774 15.6488 3.97094 14.9463C2.75706 14.2569 1.78854 13.3008 1.06538 12.078C0.355125 10.8553 0 9.50244 0 8.01951C0 6.51057 0.361582 5.14472 1.08475 3.92195C1.82082 2.69919 2.81517 1.74309 4.0678 1.05366C5.33333 0.351219 6.72155 0 8.23245 0ZM7.88378 10.9463C8.55529 10.9463 9.1364 10.7122 9.62712 10.2439C10.1308 9.7626 10.3826 9.06667 10.3826 8.1561C10.3826 7.25854 10.1372 6.57561 9.64649 6.10732C9.15577 5.62602 8.5682 5.38537 7.88378 5.38537C7.1477 5.38537 6.5343 5.64553 6.04358 6.16585C5.55287 6.68618 5.30751 7.3561 5.30751 8.17561C5.30751 8.98211 5.55287 9.64553 6.04358 10.1659C6.5343 10.6862 7.1477 10.9463 7.88378 10.9463Z" fill="#B2B2B2"/>
</svg>
