<svg width="16" height="14" viewBox="0 0 16 14" fill="none" xmlns="http://www.w3.org/2000/svg">
<path fill-rule="evenodd" clip-rule="evenodd" d="M7.61925 1.15976C7.82953 0.946747 8.17047 0.946747 8.38075 1.15976L14.8423 7.70521C15.0526 7.91823 15.0526 8.26359 14.8423 8.4766C14.632 8.68962 14.2911 8.68962 14.0808 8.4766L8 2.31684L1.91921 8.4766C1.70893 8.68962 1.36799 8.68962 1.15771 8.4766C0.947429 8.26359 0.947429 7.91823 1.15771 7.70521L7.61925 1.15976Z" fill="#B2B2B2"/>
<path fill-rule="evenodd" clip-rule="evenodd" d="M7.61925 5.5234C7.82953 5.31038 8.17047 5.31038 8.38075 5.5234L14.8423 12.0689C15.0526 12.2819 15.0526 12.6272 14.8423 12.8402C14.632 13.0533 14.2911 13.0533 14.0808 12.8402L8 6.68048L1.91921 12.8402C1.70893 13.0533 1.36799 13.0533 1.15771 12.8402C0.947429 12.6272 0.947429 12.2819 1.15771 12.0689L7.61925 5.5234Z" fill="#B2B2B2"/>
<path fill-rule="evenodd" clip-rule="evenodd" d="M7.61925 1.15976C7.82953 0.946747 8.17047 0.946747 8.38075 1.15976L14.8423 7.70521C15.0526 7.91823 15.0526 8.26359 14.8423 8.4766C14.632 8.68962 14.2911 8.68962 14.0808 8.4766L8 2.31684L1.91921 8.4766C1.70893 8.68962 1.36799 8.68962 1.15771 8.4766C0.947429 8.26359 0.947429 7.91823 1.15771 7.70521L7.61925 1.15976Z" stroke="#B2B2B2" stroke-width="0.6" stroke-linecap="round" stroke-linejoin="round"/>
<path fill-rule="evenodd" clip-rule="evenodd" d="M7.61925 5.5234C7.82953 5.31038 8.17047 5.31038 8.38075 5.5234L14.8423 12.0689C15.0526 12.2819 15.0526 12.6272 14.8423 12.8402C14.632 13.0533 14.2911 13.0533 14.0808 12.8402L8 6.68048L1.91921 12.8402C1.70893 13.0533 1.36799 13.0533 1.15771 12.8402C0.947429 12.6272 0.947429 12.2819 1.15771 12.0689L7.61925 5.5234Z" stroke="#B2B2B2" stroke-width="0.6" stroke-linecap="round" stroke-linejoin="round"/>
</svg>
