<svg width="14" height="14" viewBox="0 0 14 14" fill="none" xmlns="http://www.w3.org/2000/svg">
<path d="M12.25 0.875C12.7332 0.875 13.125 1.26675 13.125 1.75V12.25C13.125 12.7332 12.7332 13.125 12.25 13.125H1.75C1.26675 13.125 0.875 12.7332 0.875 12.25V1.75C0.875 1.26675 1.26675 0.875 1.75 0.875H12.25ZM1.75 0C0.783502 0 0 0.783502 0 1.75V12.25C0 13.2165 0.783502 14 1.75 14H12.25C13.2165 14 14 13.2165 14 12.25V1.75C14 0.783502 13.2165 0 12.25 0H1.75Z" fill="#B2B2B2"/>
<path d="M9.59845 4.34846C9.85474 4.09218 10.2703 4.09218 10.5265 4.34846C10.7797 4.6016 10.7828 5.01009 10.5358 5.26704L7.04267 9.63351C7.03763 9.63981 7.03224 9.64583 7.02653 9.65154C6.77025 9.90782 6.35474 9.90782 6.09846 9.65154L3.78281 7.3359C3.52653 7.07962 3.52653 6.6641 3.78281 6.40782C4.0391 6.15154 4.45461 6.15154 4.71089 6.40782L6.54272 8.23965L9.58105 4.36809C9.58645 4.36121 9.59227 4.35465 9.59845 4.34846Z" fill="#B2B2B2"/>
</svg>
