<svg width="16" height="16" viewBox="0 0 16 16" fill="none" xmlns="http://www.w3.org/2000/svg">
<path d="M8 4.0625C8 3.82088 7.80412 3.625 7.5625 3.625C7.32088 3.625 7.125 3.82088 7.125 4.0625V8.875C7.125 9.032 7.20913 9.17696 7.34544 9.25486L10.4079 11.0049C10.6177 11.1247 10.885 11.0519 11.0049 10.8421C11.1247 10.6323 11.0518 10.365 10.8421 10.2451L8 8.62111V4.0625Z" fill="#B2B2B2"/>
<path d="M8 15C11.866 15 15 11.866 15 8C15 4.13401 11.866 1 8 1C4.13401 1 1 4.13401 1 8C1 11.866 4.13401 15 8 15ZM14.125 8C14.125 11.3827 11.3827 14.125 8 14.125C4.61726 14.125 1.875 11.3827 1.875 8C1.875 4.61726 4.61726 1.875 8 1.875C11.3827 1.875 14.125 4.61726 14.125 8Z" fill="#B2B2B2"/>
<path d="M8 4.0625C8 3.82088 7.80412 3.625 7.5625 3.625C7.32088 3.625 7.125 3.82088 7.125 4.0625V8.875C7.125 9.032 7.20913 9.17696 7.34544 9.25486L10.4079 11.0049C10.6177 11.1247 10.885 11.0519 11.0049 10.8421C11.1247 10.6323 11.0518 10.365 10.8421 10.2451L8 8.62111V4.0625Z" stroke="#B2B2B2" stroke-width="0.2" stroke-linecap="round" stroke-linejoin="round"/>
<path d="M8 15C11.866 15 15 11.866 15 8C15 4.13401 11.866 1 8 1C4.13401 1 1 4.13401 1 8C1 11.866 4.13401 15 8 15ZM14.125 8C14.125 11.3827 11.3827 14.125 8 14.125C4.61726 14.125 1.875 11.3827 1.875 8C1.875 4.61726 4.61726 1.875 8 1.875C11.3827 1.875 14.125 4.61726 14.125 8Z" stroke="#B2B2B2" stroke-width="0.2" stroke-linecap="round" stroke-linejoin="round"/>
</svg>
