<svg width="12" height="12" viewBox="0 0 12 12" fill="none" xmlns="http://www.w3.org/2000/svg">
<path d="M0.73013 0.73013C1.03697 0.42329 1.53446 0.42329 1.8413 0.73013L6 4.88883L10.1587 0.73013C10.4655 0.42329 10.963 0.42329 11.2699 0.73013C11.5767 1.03697 11.5767 1.53446 11.2699 1.8413L7.11117 6L11.2699 10.1587C11.5767 10.4655 11.5767 10.963 11.2699 11.2699C10.963 11.5767 10.4655 11.5767 10.1587 11.2699L6 7.11117L1.8413 11.2699C1.53446 11.5767 1.03697 11.5767 0.73013 11.2699C0.42329 10.963 0.42329 10.4655 0.73013 10.1587L4.88883 6L0.73013 1.8413C0.42329 1.53446 0.42329 1.03697 0.73013 0.73013Z" fill="white" fill-opacity="0.7"/>
</svg>
