<svg width="16" height="15" viewBox="0 0 16 15" fill="none" xmlns="http://www.w3.org/2000/svg">
<path d="M2.60078 1.73275H13.4008C13.8711 1.73275 14.2508 2.10648 14.2508 2.56546V12.6732L12.5358 10.9912C12.1888 10.6508 11.7183 10.4598 11.228 10.4598H2.60078C2.13042 10.4598 1.75078 10.0861 1.75078 9.6271V2.56546C1.75078 2.10648 2.13042 1.73275 2.60078 1.73275ZM15.2508 2.56546C15.2508 1.56193 14.4216 0.750049 13.4008 0.750049H2.60078C1.57997 0.750049 0.750781 1.56193 0.750781 2.56546V9.6271C0.750781 10.6306 1.57997 11.4425 2.60078 11.4425H11.228C11.4537 11.4425 11.67 11.5305 11.8294 11.6867L14.3976 14.2056C14.7113 14.5132 15.2508 14.2973 15.2508 13.8578V2.56546Z" fill="#919191" stroke="#919191" stroke-width="0.1"/>
</svg>
