<svg width="12" height="14" viewBox="0 0 12 14" fill="none" xmlns="http://www.w3.org/2000/svg">
<path d="M0.666626 3.26672H11.3333M3.62959 3.26672V2.02228C3.62959 1.69223 3.75446 1.3757 3.97672 1.14232C4.19899 0.908943 4.50044 0.777832 4.81477 0.777832H7.18514C7.49947 0.777832 7.80093 0.908943 8.0232 1.14232C8.24546 1.3757 8.37033 1.69223 8.37033 2.02228V3.26672M10.1481 3.26672V11.9778C10.1481 12.3079 10.0232 12.6244 9.80097 12.8578C9.57871 13.0912 9.27725 13.2223 8.96292 13.2223H3.037C2.72267 13.2223 2.42121 13.0912 2.19894 12.8578C1.97668 12.6244 1.85181 12.3079 1.85181 11.9778V3.26672H10.1481Z" stroke="#B2B2B2" stroke-linecap="round" stroke-linejoin="round"/>
</svg>
