<svg width="18" height="18" viewBox="0 0 18 18" fill="none" xmlns="http://www.w3.org/2000/svg">
<path d="M10.478 1.68003L11.9836 4.71614C12.1889 5.13878 12.7364 5.54417 13.1983 5.6218L15.9273 6.07894C17.6724 6.3722 18.083 7.64874 16.8255 8.90804L14.704 11.0471C14.3447 11.4094 14.1479 12.108 14.2591 12.6083L14.8665 15.2563C15.3456 17.3522 14.242 18.163 12.4028 17.0676L9.84494 15.5409C9.38299 15.2649 8.62163 15.2649 8.15113 15.5409L5.5933 17.0676C3.76261 18.163 2.65051 17.3436 3.12957 15.2563L3.73695 12.6083C3.84816 12.108 3.6514 11.4094 3.29211 11.0471L1.17056 8.90804C-0.0784085 7.64874 0.323658 6.3722 2.0688 6.07894L4.79772 5.6218C5.25111 5.54417 5.79861 5.13878 6.00392 4.71614L7.50953 1.68003C8.33077 0.0325998 9.66529 0.0325998 10.478 1.68003Z" fill="#0079BF"/>
</svg>
