<svg width="22" height="22" viewBox="0 0 22 22" fill="none" xmlns="http://www.w3.org/2000/svg">
<path d="M12.4781 3.68003L13.9837 6.71614C14.189 7.13878 14.7365 7.54417 15.1985 7.6218L17.9274 8.07894C19.6725 8.3722 20.0831 9.64874 18.8256 10.908L16.7041 13.0471C16.3448 13.4094 16.148 14.108 16.2592 14.6083L16.8666 17.2563C17.3457 19.3522 16.2421 20.163 14.4029 19.0676L11.8451 17.5409C11.3831 17.2649 10.6218 17.2649 10.1512 17.5409L7.59342 19.0676C5.76273 20.163 4.65063 19.3436 5.12969 17.2563L5.73707 14.6083C5.84828 14.108 5.65152 13.4094 5.29223 13.0471L3.17069 10.908C1.92171 9.64874 2.32378 8.3722 4.06892 8.07894L6.79784 7.6218C7.25124 7.54417 7.79873 7.13878 8.00404 6.71614L9.50965 3.68003C10.3309 2.0326 11.6654 2.0326 12.4781 3.68003Z" stroke="#F0F0F0" stroke-width="1.5" stroke-linecap="round" stroke-linejoin="round"/>
</svg>
