<svg width="14" height="11" viewBox="0 0 14 11" fill="none" xmlns="http://www.w3.org/2000/svg">
<path d="M0.313379 2.42866L0.277925 1.69231C0.277925 0.757672 1.08048 0 2.07048 0H5.36122C5.83663 0 6.29257 0.178296 6.62874 0.495666L7.37124 1.19664C7.70741 1.51401 8.16335 1.69231 8.63877 1.69231H12.2073C13.2614 1.69231 14.0879 2.54679 13.9925 3.53783L13.4221 9.46091C13.3382 10.3326 12.5641 11 11.6369 11H2.36305C1.43594 11 0.661802 10.3326 0.577865 9.46091L0.00750762 3.53783C-0.0319781 3.12778 0.0863757 2.7411 0.313379 2.42866ZM1.7927 2.53846C1.26566 2.53846 0.852386 2.9657 0.900102 3.46122L1.47046 9.3843C1.51243 9.82014 1.8995 10.1538 2.36305 10.1538H11.6369C12.1005 10.1538 12.4876 9.82014 12.5295 9.3843L13.0999 3.46122C13.1476 2.9657 12.7343 2.53846 12.2073 2.53846H1.7927ZM5.99498 1.09399C5.8269 0.935302 5.59893 0.846154 5.36122 0.846154H2.07048C1.58113 0.846154 1.18338 1.21639 1.17436 1.67634L1.18 1.79355C1.37073 1.72811 1.57695 1.69231 1.7927 1.69231H6.62874L5.99498 1.09399Z" fill="#BEBFBF"/>
</svg>
