<svg width="18" height="14" viewBox="0 0 18 14" fill="none" xmlns="http://www.w3.org/2000/svg">
<path d="M16.1472 1.32775C16.4684 1.02401 16.4684 0.531547 16.1472 0.227806C15.8259 -0.0759353 15.3051 -0.0759353 14.9839 0.227806L1.82297 12.6723C1.50174 12.976 1.50174 13.4685 1.82297 13.7722C2.14419 14.0759 2.66501 14.0759 2.98624 13.7722L16.1472 1.32775Z" fill="#B2B2B2"/>
<path d="M9.00514 3.88895C9.1432 3.88973 9.2025 4.04454 9.10487 4.13685L5.95707 7.11329C5.85944 7.2056 5.69572 7.14953 5.69489 7.01899L5.69483 7C5.69483 5.28178 7.16792 3.88889 8.98506 3.88889L9.00514 3.88895Z" fill="#B2B2B2"/>
<path d="M8.86525 9.86315C8.76762 9.95546 8.82692 10.1103 8.96498 10.1111L8.98506 10.1111C10.8022 10.1111 12.2753 8.71822 12.2753 7L12.2752 6.98102C12.2744 6.85047 12.1107 6.7944 12.0131 6.88671L8.86525 9.86315Z" fill="#B2B2B2"/>
<path d="M10.0356 3.17108C10.0864 3.17693 10.1373 3.16067 10.1734 3.12649L11.3144 2.04764C11.4046 1.96235 11.3621 1.8171 11.2377 1.79066C10.532 1.64075 9.77962 1.55556 8.98506 1.55556C4.1273 1.55556 1.41012 4.72132 0.213641 6.37453C-0.0373937 6.72139 -0.0786645 7.1846 0.151224 7.57601C0.586543 8.31718 1.37041 9.30097 2.49401 10.1901C2.55871 10.2413 2.65392 10.2366 2.71357 10.1802L3.64709 9.29752C3.71695 9.23146 3.70975 9.1225 3.63315 9.06349C2.75808 8.38945 2.11929 7.64389 1.72669 7.04202C2.90148 5.47523 5.16074 3.11111 8.98506 3.11111C9.34568 3.11111 9.69605 3.13199 10.0356 3.17108Z" fill="#B2B2B2"/>
<path d="M6.73396 12.2068C6.61002 12.1799 6.56818 12.0352 6.65809 11.9502L7.79765 10.8726C7.83392 10.8383 7.885 10.8221 7.9359 10.8281C8.27341 10.8677 8.62317 10.8889 8.98506 10.8889C12.8835 10.8889 15.3747 8.42932 16.2994 6.95458C16.0021 6.39356 15.3581 5.611 14.3882 4.89261C14.3094 4.83423 14.3008 4.72349 14.3716 4.65655L15.3075 3.77162C15.3664 3.71595 15.46 3.71055 15.5248 3.76002C16.7168 4.67046 17.5535 5.71516 17.914 6.5571C18.0516 6.87847 18.0183 7.2281 17.8557 7.51245C16.8575 9.25868 13.8605 12.4444 8.98506 12.4444C8.18376 12.4444 7.43322 12.3584 6.73396 12.2068Z" fill="#B2B2B2"/>
</svg>
