<svg width="14" height="14" viewBox="0 0 14 14" fill="none" xmlns="http://www.w3.org/2000/svg">
<path d="M5 3.5C5 4.32843 4.32843 5 3.5 5C2.67157 5 2 4.32843 2 3.5C2 2.67157 2.67157 2 3.5 2C4.32843 2 5 2.67157 5 3.5ZM4 3.5C4 3.22386 3.77614 3 3.5 3C3.22386 3 3 3.22386 3 3.5C3 3.77614 3.22386 4 3.5 4C3.77614 4 4 3.77614 4 3.5Z" fill="#B2B2B2"/>
<path d="M1 0H5.58579C5.851 0 6.10536 0.105357 6.29289 0.292893L13.2929 7.29289C13.6834 7.68342 13.6834 8.31658 13.2929 8.70711L8.70711 13.2929C8.31658 13.6834 7.68342 13.6834 7.29289 13.2929L0.292892 6.29289C0.105356 6.10536 0 5.851 0 5.58579V1C0 0.447715 0.447715 0 1 0ZM0.999999 5.58579L8 12.5858L12.5858 8L5.58579 1L1 1L0.999999 5.58579Z" fill="#B2B2B2"/>
</svg>
