<svg width="16" height="12" viewBox="0 0 16 12" fill="none" xmlns="http://www.w3.org/2000/svg">
<path d="M6 6C7.65685 6 9 4.65685 9 3C9 1.34315 7.65685 0 6 0C4.34315 0 3 1.34315 3 3C3 4.65685 4.34315 6 6 6ZM8 3C8 4.10457 7.10457 5 6 5C4.89543 5 4 4.10457 4 3C4 1.89543 4.89543 1 6 1C7.10457 1 8 1.89543 8 3Z" fill="#B2B2B2"/>
<path d="M12 11C12 12 11 12 11 12H1C1 12 0 12 0 11C0 10 1 7 6 7C11 7 12 10 12 11ZM11 10.9965C10.9986 10.7497 10.8462 10.0104 10.1679 9.33211C9.51563 8.67985 8.2891 8 5.99999 8C3.71088 8 2.48435 8.67985 1.8321 9.33211C1.15375 10.0104 1.00142 10.7497 1 10.9965H11Z" fill="#B2B2B2"/>
<path fill-rule="evenodd" clip-rule="evenodd" d="M13.5 3C13.7761 3 14 3.22386 14 3.5V5H15.5C15.7761 5 16 5.22386 16 5.5C16 5.77614 15.7761 6 15.5 6H14V7.5C14 7.77614 13.7761 8 13.5 8C13.2239 8 13 7.77614 13 7.5V6H11.5C11.2239 6 11 5.77614 11 5.5C11 5.22386 11.2239 5 11.5 5H13V3.5C13 3.22386 13.2239 3 13.5 3Z" fill="#B2B2B2"/>
</svg>
