<svg width="96" height="34" viewBox="0 0 96 34" fill="none" xmlns="http://www.w3.org/2000/svg">
<rect width="96" height="34" rx="17" fill="#E9E9E9"/>
<g clip-path="url(#clip0_727_2220)">
<path d="M18.75 9.75C18.75 9.19772 19.1977 8.75 19.75 8.75H25.0833C25.6356 8.75 26.0833 9.19772 26.0833 9.75V15.0833C26.0833 15.6356 25.6356 16.0833 25.0833 16.0833H19.75C19.1977 16.0833 18.75 15.6356 18.75 15.0833V9.75ZM18.75 18.9167C18.75 18.3644 19.1977 17.9167 19.75 17.9167H25.0833C25.6356 17.9167 26.0833 18.3644 26.0833 18.9167V24.25C26.0833 24.8023 25.6356 25.25 25.0833 25.25H19.75C19.1977 25.25 18.75 24.8023 18.75 24.25V18.9167ZM27.9167 9.75C27.9167 9.19772 28.3644 8.75 28.9167 8.75H34.25C34.8023 8.75 35.25 9.19772 35.25 9.75V15.0833C35.25 15.6356 34.8023 16.0833 34.25 16.0833H28.9167C28.3644 16.0833 27.9167 15.6356 27.9167 15.0833V9.75ZM27.9167 18.9167C27.9167 18.3644 28.3644 17.9167 28.9167 17.9167H34.25C34.8023 17.9167 35.25 18.3644 35.25 18.9167V24.25C35.25 24.8023 34.8023 25.25 34.25 25.25H28.9167C28.3644 25.25 27.9167 24.8023 27.9167 24.25V18.9167ZM29.75 10.5833V14.25H33.4167V10.5833H29.75ZM29.75 19.75V23.4167H33.4167V19.75H29.75ZM20.5833 10.5833V14.25H24.25V10.5833H20.5833ZM20.5833 19.75V23.4167H24.25V19.75H20.5833Z" fill="#0079BF"/>
</g>
<path d="M53.94 11.606V21H52.456V15.204L49.81 18.676H49.306L46.646 15.19V21H45.162V11.606H45.68L49.558 16.772L53.436 11.606H53.94ZM62.2852 18.046H57.1612C57.2545 18.606 57.5019 19.0493 57.9032 19.376C58.3139 19.6933 58.8132 19.852 59.4012 19.852C60.1199 19.852 60.7872 19.5813 61.4032 19.04L62.1032 20.048C61.3192 20.7853 60.4045 21.154 59.3592 21.154C58.6592 21.154 58.0292 21 57.4692 20.692C56.9092 20.3747 56.4659 19.9453 56.1392 19.404C55.8219 18.8533 55.6632 18.242 55.6632 17.57C55.6632 16.9073 55.8172 16.3007 56.1252 15.75C56.4425 15.1993 56.8719 14.7653 57.4132 14.448C57.9639 14.1307 58.5659 13.972 59.2192 13.972C59.8259 13.972 60.3672 14.112 60.8432 14.392C61.3285 14.6627 61.7065 15.036 61.9772 15.512C62.2572 15.988 62.3972 16.5247 62.3972 17.122C62.3972 17.4113 62.3599 17.7193 62.2852 18.046ZM59.1632 15.218C58.6779 15.218 58.2532 15.372 57.8892 15.68C57.5345 15.9787 57.3012 16.3847 57.1892 16.898H60.9272C60.9179 16.3753 60.7405 15.9647 60.3952 15.666C60.0592 15.3673 59.6485 15.218 59.1632 15.218ZM67.5116 13.972C68.3142 13.972 68.9442 14.224 69.4016 14.728C69.8589 15.2227 70.0876 15.8807 70.0876 16.702V21H68.6176V16.898C68.6176 16.422 68.4776 16.0393 68.1976 15.75C67.9269 15.4513 67.5676 15.302 67.1196 15.302C66.6622 15.302 66.2842 15.4513 65.9856 15.75C65.6962 16.0487 65.5516 16.4313 65.5516 16.898V21H64.0816V14.126H65.4536V14.798C65.9762 14.2473 66.6622 13.972 67.5116 13.972ZM75.0743 21.154C74.505 21.154 73.9916 21.0327 73.5343 20.79C73.077 20.538 72.7176 20.1833 72.4563 19.726C72.195 19.2593 72.0643 18.7227 72.0643 18.116V14.126H73.5203V18.228C73.5203 18.704 73.665 19.0867 73.9543 19.376C74.253 19.656 74.6263 19.796 75.0743 19.796C75.5036 19.796 75.863 19.656 76.1523 19.376C76.4416 19.0867 76.5863 18.704 76.5863 18.228V14.126H78.0563V18.116C78.0563 18.7227 77.9256 19.2593 77.6643 19.726C77.403 20.1833 77.0436 20.538 76.5863 20.79C76.1383 21.0327 75.6343 21.154 75.0743 21.154Z" fill="#438AB4"/>
<defs>
<clipPath id="clip0_727_2220">
<rect width="22" height="22" fill="white" transform="translate(16 6)"/>
</clipPath>
</defs>
</svg>
