<svg width="16" height="14" viewBox="0 0 16 14" fill="none" xmlns="http://www.w3.org/2000/svg">
<path fill-rule="evenodd" clip-rule="evenodd" d="M8.67664 1.15924C8.90561 1.3731 8.9075 1.72163 8.68087 1.93769L2.98156 7.37115C1.89504 8.40698 1.89504 10.0887 2.98156 11.1246C4.06479 12.1573 5.81857 12.1573 6.90181 11.1246L13.3135 5.01192C14.0066 4.35118 14.0066 3.27761 13.3135 2.61688C12.6238 1.95927 11.5079 1.95927 10.8181 2.61688L5.35627 7.82393C5.05666 8.10957 5.05666 8.57498 5.35627 8.86061C5.6526 9.14312 6.13054 9.14312 6.42687 8.86061L11.1763 4.33274C11.4029 4.11667 11.7723 4.11489 12.0012 4.32875C12.2302 4.54262 12.2321 4.89114 12.0055 5.10721L7.25604 9.63509C6.50315 10.3529 5.27998 10.3528 4.5271 9.63509C3.77749 8.92045 3.77749 7.7641 4.5271 7.04946L9.98894 1.8424C11.1353 0.749537 12.9964 0.749537 14.1427 1.8424C15.2858 2.93214 15.2858 4.69665 14.1427 5.78639L7.73098 11.899C6.19118 13.367 3.69218 13.367 2.15239 11.899C0.615871 10.4342 0.615871 8.06152 2.15239 6.59667L7.8517 1.16322C8.07833 0.947158 8.44767 0.945374 8.67664 1.15924Z" fill="#B2B2B2" stroke="#F4F5F7" stroke-width="0.1" stroke-linecap="round"/>
</svg>
