<svg width="18" height="14" viewBox="0 0 19 12" fill="none" xmlns="http://www.w3.org/2000/svg">
<path fill-rule="evenodd" clip-rule="evenodd" d="M12.9573 6C12.9573 7.89355 11.4023 9.42857 9.48423 9.42857C7.56613 9.42857 6.01121 7.89355 6.01121 6C6.01121 4.10645 7.56613 2.57143 9.48423 2.57143C11.4023 2.57143 12.9573 4.10645 12.9573 6ZM9.48423 5.14286C9.48423 5.61624 9.0955 6 8.61598 6C8.13645 6 7.74772 5.61624 7.74772 5.14286C7.74772 4.66947 8.13645 4.28571 8.61598 4.28571C9.0955 4.28571 9.48423 4.66947 9.48423 5.14286Z" fill="black"/>
<path fill-rule="evenodd" clip-rule="evenodd" d="M9.48423 0C4.3566 0 1.48846 3.4888 0.22551 5.31071C-0.0394711 5.69296 -0.0830348 6.20343 0.159625 6.63478C1.24735 8.56831 4.39668 12 9.48423 12C14.6305 12 17.794 8.48916 18.8477 6.56474C19.0193 6.25138 19.0544 5.86607 18.9092 5.51191C18.471 4.44325 17.3659 3.07816 15.789 1.98412C14.1913 0.875661 12.0456 0 9.48423 0ZM9.48423 10.2857C5.45193 10.2857 2.84556 7.68357 1.82262 6.04631C3.06267 4.31964 5.44744 1.71429 9.48423 1.71429C11.6324 1.71429 13.4359 2.44691 14.7905 3.38669C16.037 4.25145 16.8521 5.25495 17.205 5.94994C16.2288 7.57517 13.5993 10.2857 9.48423 10.2857Z" fill="black"/>
</svg>
