<svg width="21" height="20" viewBox="0 0 21 20" fill="none" xmlns="http://www.w3.org/2000/svg">
<path d="M12.1725 2.68003L13.8559 5.71614C14.0855 6.13878 14.6976 6.54417 15.2141 6.6218L18.2653 7.07894C20.2165 7.3722 20.6756 8.64874 19.2696 9.90804L16.8975 12.0471C16.4958 12.4094 16.2758 13.108 16.4001 13.6083L17.0792 16.2563C17.6149 18.3522 16.381 19.163 14.3246 18.0676L11.4647 16.5409C10.9482 16.2649 10.097 16.2649 9.57092 16.5409L6.71106 18.0676C4.6642 19.163 3.42078 18.3436 3.95641 16.2563L4.63551 13.6083C4.75985 13.108 4.53986 12.4094 4.13814 12.0471L1.76608 9.90804C0.369631 8.64874 0.819174 7.3722 2.77038 7.07894L5.82154 6.6218C6.32847 6.54417 6.94061 6.13878 7.17016 5.71614L8.85356 2.68003C9.77178 1.0326 11.2639 1.0326 12.1725 2.68003Z" stroke="#F0F0F0" stroke-width="1.5" stroke-linecap="round" stroke-linejoin="round"/>
</svg>
