<svg width="34" height="34" viewBox="0 0 34 34" fill="none" xmlns="http://www.w3.org/2000/svg">
<rect width="34" height="34" rx="17" fill="#E9E9E9"/>
<path d="M18.2977 10.6325L19.6177 13.2725C19.7977 13.64 20.2777 13.9925 20.6827 14.06L23.0752 14.4575C24.6052 14.7125 24.9652 15.8225 23.8627 16.9175L22.0027 18.7775C21.6877 19.0925 21.5152 19.7 21.6127 20.135L22.1452 22.4375C22.5652 24.26 21.5977 24.965 19.9852 24.0125L17.7427 22.685C17.3377 22.445 16.6702 22.445 16.2577 22.685L14.0152 24.0125C12.4102 24.965 11.4352 24.2525 11.8552 22.4375L12.3877 20.135C12.4852 19.7 12.3127 19.0925 11.9977 18.7775L10.1377 16.9175C9.04268 15.8225 9.39518 14.7125 10.9252 14.4575L13.3177 14.06C13.7152 13.9925 14.1952 13.64 14.3752 13.2725L15.6952 10.6325C16.4152 9.19998 17.5852 9.19998 18.2977 10.6325Z" stroke="#0079BF" stroke-width="1.5" stroke-linecap="round" stroke-linejoin="round"/>
</svg>
