<svg width="16" height="16" viewBox="0 0 16 16" fill="none" xmlns="http://www.w3.org/2000/svg">
<path d="M7.99998 4.40001C7.99998 4.17909 7.82089 4.00001 7.59998 4.00001C7.37906 4.00001 7.19998 4.17909 7.19998 4.40001V8.80001C7.19998 8.94355 7.27689 9.07609 7.40152 9.1473L10.2015 10.7473C10.3933 10.8569 10.6377 10.7903 10.7473 10.5985C10.8569 10.4067 10.7902 10.1623 10.5984 10.0527L7.99998 8.56788V4.40001Z" fill="#B2B2B2"/>
<path d="M7.99998 14.4C11.5346 14.4 14.4 11.5346 14.4 8.00001C14.4 4.46538 11.5346 1.60001 7.99998 1.60001C4.46535 1.60001 1.59998 4.46538 1.59998 8.00001C1.59998 11.5346 4.46535 14.4 7.99998 14.4ZM13.6 8.00001C13.6 11.0928 11.0928 13.6 7.99998 13.6C4.90718 13.6 2.39998 11.0928 2.39998 8.00001C2.39998 4.90721 4.90718 2.40001 7.99998 2.40001C11.0928 2.40001 13.6 4.90721 13.6 8.00001Z" fill="#B2B2B2"/>
</svg>
