<svg width="14" height="14" viewBox="0 0 14 14" fill="none" xmlns="http://www.w3.org/2000/svg">
<path d="M6.99961 3.39998C6.99961 3.17906 6.82052 2.99998 6.59961 2.99998C6.3787 2.99998 6.19961 3.17906 6.19961 3.39998V7.79998C6.19961 7.94352 6.27652 8.07606 6.40115 8.14727L9.20115 9.74727C9.39296 9.85688 9.6373 9.79024 9.74691 9.59843C9.85651 9.40662 9.78987 9.16228 9.59806 9.05268L6.99961 7.56785V3.39998Z" fill="#B2B2B2"/>
<path d="M6.99961 13.4C10.5342 13.4 13.3996 10.5346 13.3996 6.99998C13.3996 3.46535 10.5342 0.599976 6.99961 0.599976C3.46499 0.599976 0.599609 3.46535 0.599609 6.99998C0.599609 10.5346 3.46499 13.4 6.99961 13.4ZM12.5996 6.99998C12.5996 10.0928 10.0924 12.6 6.99961 12.6C3.90681 12.6 1.39961 10.0928 1.39961 6.99998C1.39961 3.90718 3.90681 1.39998 6.99961 1.39998C10.0924 1.39998 12.5996 3.90718 12.5996 6.99998Z" fill="#B2B2B2"/>
</svg>
