<svg width="16" height="15" viewBox="0 0 16 15" fill="none" xmlns="http://www.w3.org/2000/svg">
<path d="M2.5998 1.73275H13.3998C13.8702 1.73275 14.2498 2.10648 14.2498 2.56546V12.6732L12.5348 10.9912C12.1878 10.6508 11.7174 10.4598 11.227 10.4598H2.5998C2.12944 10.4598 1.7498 10.0861 1.7498 9.6271V2.56546C1.7498 2.10648 2.12944 1.73275 2.5998 1.73275ZM15.2498 2.56546C15.2498 1.56193 14.4206 0.750049 13.3998 0.750049H2.5998C1.579 0.750049 0.749805 1.56193 0.749805 2.56546V9.6271C0.749805 10.6306 1.579 11.4425 2.5998 11.4425H11.227C11.4528 11.4425 11.6691 11.5305 11.8284 11.6867L14.3966 14.2056C14.7103 14.5132 15.2498 14.2973 15.2498 13.8578V2.56546Z" fill="#919191" stroke="#919191" stroke-width="0.1"/>
</svg>
