<svg width="12" height="12" viewBox="0 0 12 12" fill="none" xmlns="http://www.w3.org/2000/svg">
<path d="M6.00039 0.399902C6.38699 0.399902 6.70039 0.713303 6.70039 1.0999V5.2999H10.9004C11.287 5.2999 11.6004 5.6133 11.6004 5.9999C11.6004 6.3865 11.287 6.6999 10.9004 6.6999H6.70039V10.8999C6.70039 11.2865 6.38699 11.5999 6.00039 11.5999C5.61379 11.5999 5.30039 11.2865 5.30039 10.8999V6.6999H1.10039C0.713791 6.6999 0.400391 6.3865 0.400391 5.9999C0.400391 5.6133 0.713791 5.2999 1.10039 5.2999H5.30039V1.0999C5.30039 0.713303 5.61379 0.399902 6.00039 0.399902Z" fill="white"/>
</svg>
