<svg width="16" height="14" viewBox="0 0 16 14" fill="none" xmlns="http://www.w3.org/2000/svg">
<path fill-rule="evenodd" clip-rule="evenodd" d="M8.38075 12.8402C8.17047 13.0533 7.82953 13.0533 7.61925 12.8402L1.15771 6.29479C0.947429 6.08177 0.947429 5.73641 1.15771 5.5234C1.36799 5.31038 1.70893 5.31038 1.91921 5.5234L8 11.6832L14.0808 5.5234C14.2911 5.31038 14.632 5.31038 14.8423 5.5234C15.0526 5.73641 15.0526 6.08177 14.8423 6.29479L8.38075 12.8402Z" fill="#B2B2B2"/>
<path fill-rule="evenodd" clip-rule="evenodd" d="M8.38075 8.4766C8.17047 8.68962 7.82953 8.68962 7.61925 8.4766L1.15771 1.93115C0.947429 1.71813 0.947429 1.37277 1.15771 1.15976C1.36799 0.946746 1.70893 0.946746 1.91921 1.15976L8 7.31952L14.0808 1.15976C14.2911 0.946746 14.632 0.946746 14.8423 1.15976C15.0526 1.37277 15.0526 1.71813 14.8423 1.93115L8.38075 8.4766Z" fill="#B2B2B2"/>
<path fill-rule="evenodd" clip-rule="evenodd" d="M8.38075 12.8402C8.17047 13.0533 7.82953 13.0533 7.61925 12.8402L1.15771 6.29479C0.947429 6.08177 0.947429 5.73641 1.15771 5.5234C1.36799 5.31038 1.70893 5.31038 1.91921 5.5234L8 11.6832L14.0808 5.5234C14.2911 5.31038 14.632 5.31038 14.8423 5.5234C15.0526 5.73641 15.0526 6.08177 14.8423 6.29479L8.38075 12.8402Z" stroke="#B2B2B2" stroke-width="0.6" stroke-linecap="round" stroke-linejoin="round"/>
<path fill-rule="evenodd" clip-rule="evenodd" d="M8.38075 8.4766C8.17047 8.68962 7.82953 8.68962 7.61925 8.4766L1.15771 1.93115C0.947429 1.71813 0.947429 1.37277 1.15771 1.15976C1.36799 0.946746 1.70893 0.946746 1.91921 1.15976L8 7.31952L14.0808 1.15976C14.2911 0.946746 14.632 0.946746 14.8423 1.15976C15.0526 1.37277 15.0526 1.71813 14.8423 1.93115L8.38075 8.4766Z" stroke="#B2B2B2" stroke-width="0.6" stroke-linecap="round" stroke-linejoin="round"/>
</svg>
