<svg width="36" height="36" viewBox="0 0 36 36" fill="none" xmlns="http://www.w3.org/2000/svg">
<rect width="36" height="36" rx="18" fill="#F0F0F0"/>
<path fill-rule="evenodd" clip-rule="evenodd" d="M20.9693 9.65901C21.848 8.78033 23.2726 8.78033 24.1513 9.65901L25.5037 11.0114C26.3824 11.8901 26.3824 13.3147 25.5037 14.1934L15.1497 24.5474L10.4827 26.103C9.60322 26.3962 8.76652 25.5595 9.05968 24.68L10.6153 20.013L20.9693 9.65901ZM23.0907 10.7197C22.7978 10.4268 22.3229 10.4268 22.03 10.7197L21.0157 11.7339L23.4288 14.147L24.443 13.1327C24.7359 12.8398 24.7359 12.3649 24.443 12.072L23.0907 10.7197ZM22.3681 15.2076L19.9551 12.7946L12.3315 20.4182L14.7445 22.8312L22.3681 15.2076ZM13.3561 23.5641L11.5986 21.8066L10.7199 24.4428L13.3561 23.5641Z" fill="#919191"/>
</svg>
