<svg width="18" height="20" viewBox="0 0 18 20" fill="none" xmlns="http://www.w3.org/2000/svg">
<path d="M1.28564 4.85728H16.7142M5.57136 4.85728V3.143C5.57136 2.68834 5.75197 2.2523 6.07346 1.93081C6.39495 1.60932 6.83099 1.42871 7.28565 1.42871H10.7142C11.1689 1.42871 11.6049 1.60932 11.9264 1.93081C12.2479 2.2523 12.4285 2.68834 12.4285 3.143V4.85728M14.9999 4.85728V16.8573C14.9999 17.3119 14.8193 17.748 14.4978 18.0695C14.1763 18.391 13.7403 18.5716 13.2856 18.5716H4.71422C4.25956 18.5716 3.82352 18.391 3.50203 18.0695C3.18054 17.748 2.99993 17.3119 2.99993 16.8573V4.85728H14.9999Z" stroke="#B2B2B2" stroke-linecap="round" stroke-linejoin="round"/>
</svg>
