<svg width="20" height="22" viewBox="0 0 20 22" fill="none" xmlns="http://www.w3.org/2000/svg">
<path d="M9.99984 21.5C11.4726 21.5 12.6665 20.3247 12.6665 18.875H7.33317C7.33317 20.3247 8.52708 21.5 9.99984 21.5Z" fill="#919191"/>
<path d="M9.99984 3.0177L8.93691 3.22902C6.50054 3.71338 4.66653 5.83483 4.66653 8.375C4.66653 9.19902 4.48738 11.2589 4.05471 13.2866C3.83992 14.2932 3.55256 15.3413 3.17063 16.25H16.8291C16.4471 15.3413 16.1598 14.2932 15.945 13.2866C15.5123 11.2589 15.3332 9.19901 15.3332 8.375C15.3332 5.83481 13.4992 3.71335 11.0628 3.22901L9.99984 3.0177ZM18.2922 16.25C18.5899 16.8372 18.9351 17.3013 19.3332 17.5625H0.666504C1.06454 17.3013 1.40977 16.8372 1.70744 16.25C2.90547 13.8867 3.3332 9.5289 3.3332 8.375C3.3332 5.19788 5.62677 2.54809 8.67296 1.94249C8.66869 1.89973 8.6665 1.85637 8.6665 1.8125C8.6665 1.08763 9.26346 0.5 9.99984 0.5C10.7362 0.5 11.3332 1.08763 11.3332 1.8125C11.3332 1.85636 11.331 1.89972 11.3267 1.94248C14.3729 2.54805 16.6665 5.19786 16.6665 8.375C16.6665 9.5289 17.0942 13.8867 18.2922 16.25Z" fill="#919191"/>
</svg>
