<svg xmlns="http://www.w3.org/2000/svg" viewBox="0 0 658.57 693.82"><defs><filter id="a" height="1.285" width="1.035" color-interpolation-filters="sRGB" y="-.142" x="-.018"><feGaussianBlur stdDeviation="3.294"/></filter></defs><path opacity=".5" d="M622.25 793.26c0 15.342-100.63 27.779-224.76 27.779s-224.76-12.437-224.76-27.779 100.63-27.779 224.76-27.779 224.76 12.437 224.76 27.779z" transform="translate(-73.285 -135.12)" filter="url(#a)" fill="#666"/><g stroke="#000"><path d="M5.346 368.071c-7.96-26.64 196.31-54.52 198.82-84.86s-145.81-146.92-124.86-168.74c20.952-21.822 155.77 86.423 179.26 69.309 23.483-17.114 23.454-180.3 53.575-181.27 30.121-.973 36 196.5 63.39 208.31 27.39 11.808 194.91-98.348 211-75.191 16.086 23.156-153.14 124.33-141.56 151.84 11.578 27.516 217.39 53.315 210.95 81.824-6.44 28.509-211.77 9.417-229.5 31.335-17.728 21.918 68.448 204.04 43.2 215.88-25.247 11.842-113.67-150.26-143.02-152.44-29.345-2.178-89.25 127.46-118.73 120.31-29.484-7.151 28.553-172.9 5.977-193.03-22.575-20.128-203.39 9.08-211.35-17.561z" stroke-linecap="round" stroke-width="5" fill="#0197fd"/><path stroke-width="4" fill="#fff" d="M279.596 238.071a46.58 46.58 0 00-23.87 4.803 46.584 46.584 0 00-18.136 16.247 46.581 46.581 0 00-7.389 23.201 46.584 46.584 0 005.4 23.743c5.132 9.631 13.782 17.337 23.939 21.328 10.157 3.99 21.74 4.233 32.055.67 10.002-3.454 18.74-10.452 24.298-19.458 5.557-9.005 7.892-19.954 6.494-30.443-1.4-10.489-6.521-20.443-14.243-27.678-7.723-7.235-17.99-11.699-28.547-12.412"/><path stroke-width="4" fill="#fff" d="M354.307 250.971a46.58 46.58 0 00-23.87 4.803 46.584 46.584 0 00-18.136 16.247 46.581 46.581 0 00-7.389 23.201 46.584 46.584 0 005.4 23.743c5.132 9.631 13.782 17.337 23.939 21.328 10.157 3.99 21.74 4.233 32.055.67 10.002-3.454 18.74-10.452 24.298-19.458 5.557-9.005 7.892-19.954 6.493-30.443-1.399-10.49-6.522-20.44-14.244-27.68-7.722-7.23-17.989-11.7-28.547-12.41"/><path stroke-width=".271" d="M252.956 281.811a18.052 18.052 0 00-9.25 1.861c-2.847 1.426-5.3 3.625-7.03 6.297s-2.728 5.811-2.863 8.991a18.053 18.053 0 002.093 9.202 18.127 18.127 0 009.277 8.265 18.128 18.128 0 0012.423.26c3.877-1.339 7.263-4.05 9.417-7.541s3.058-7.733 2.516-11.798a18.12 18.12 0 00-5.52-10.727 18.117 18.117 0 00-11.063-4.81M326.301 292.751a18.052 18.052 0 00-9.25 1.861c-2.847 1.426-5.3 3.625-7.03 6.297s-2.728 5.811-2.863 8.991a18.053 18.053 0 002.093 9.202 18.127 18.127 0 009.277 8.265 18.128 18.128 0 0012.423.26c3.877-1.339 7.263-4.05 9.417-7.541s3.058-7.733 2.516-11.798a18.12 18.12 0 00-5.52-10.727 18.117 18.117 0 00-11.063-4.81"/><g stroke-linecap="round"><path stroke-width="5" d="M389.688 362.165c4.233 10.203-8.878 25.336-29.282 33.802s-40.378 7.057-44.61-3.146 8.877-25.336 29.282-33.8 40.377-7.058 44.61 3.144z"/><path stroke-width="1.721" fill="#ff8080" d="M382.636 379.031c-2.612-8.079-11.027-12.598-18.781-10.096-5.404 1.744-9.062 6.439-9.901 11.859-3.839-3.555-9.304-5.012-14.477-3.343-7.754 2.502-11.92 11.08-9.307 19.16"/></g><path d="M231.756 267.361c27.948 17.651 55.895 12.233 83.843-5.05M316.106 268.491c27.948 17.651 27.611 26.375 80.812 30.305" stroke-width="5" fill="none"/></g></svg>