<svg width="16" height="16" viewBox="0 0 16 16" fill="none" xmlns="http://www.w3.org/2000/svg">
<path d="M6.94161 0.5C3.29934 0.5 0.335938 3.46341 0.335938 7.10568C0.335938 10.7482 3.29934 13.7114 6.94161 13.7114C10.5841 13.7114 13.5473 10.7482 13.5473 7.10568C13.5473 3.46341 10.5841 0.5 6.94161 0.5ZM6.94161 12.4919C3.9717 12.4919 1.55545 10.0756 1.55545 7.10571C1.55545 4.1358 3.9717 1.71951 6.94161 1.71951C9.91152 1.71951 12.3278 4.13577 12.3278 7.10568C12.3278 10.0756 9.91152 12.4919 6.94161 12.4919Z" fill="#B2B2B2"/>
<path d="M15.1573 14.4591L11.6613 10.9632C11.4231 10.725 11.0373 10.725 10.7991 10.9632C10.5609 11.2012 10.5609 11.5874 10.7991 11.8254L14.2951 15.3213C14.4142 15.4404 14.5701 15.5 14.7262 15.5C14.8821 15.5 15.0382 15.4404 15.1573 15.3213C15.3955 15.0833 15.3955 14.6971 15.1573 14.4591Z" fill="#B2B2B2"/>
</svg>
