<svg width="22" height="22" viewBox="0 0 22 22" fill="none" xmlns="http://www.w3.org/2000/svg">
<path d="M12.478 3.68003L13.9836 6.71614C14.1889 7.13878 14.7364 7.54417 15.1983 7.6218L17.9273 8.07894C19.6724 8.3722 20.083 9.64874 18.8255 10.908L16.704 13.0471C16.3447 13.4094 16.1479 14.108 16.2591 14.6083L16.8665 17.2563C17.3456 19.3522 16.242 20.163 14.4028 19.0676L11.8449 17.5409C11.383 17.2649 10.6216 17.2649 10.1511 17.5409L7.5933 19.0676C5.76261 20.163 4.65051 19.3436 5.12957 17.2563L5.73695 14.6083C5.84816 14.108 5.6514 13.4094 5.29211 13.0471L3.17056 10.908C1.92159 9.64874 2.32366 8.3722 4.0688 8.07894L6.79772 7.6218C7.25111 7.54417 7.79861 7.13878 8.00392 6.71614L9.50953 3.68003C10.3308 2.0326 11.6653 2.0326 12.478 3.68003Z" fill="#0079BF" stroke="#0079BF" stroke-width="1.5" stroke-linecap="round" stroke-linejoin="round"/>
</svg>

