<svg width="20" height="20" viewBox="0 0 20 20" fill="none" xmlns="http://www.w3.org/2000/svg">
<path d="M11.478 2.68003L12.9836 5.71614C13.1889 6.13878 13.7364 6.54417 14.1983 6.6218L16.9273 7.07894C18.6724 7.3722 19.083 8.64874 17.8255 9.90804L15.704 12.0471C15.3447 12.4094 15.1479 13.108 15.2591 13.6083L15.8665 16.2563C16.3456 18.3522 15.242 19.163 13.4028 18.0676L10.8449 16.5409C10.383 16.2649 9.62163 16.2649 9.15113 16.5409L6.5933 18.0676C4.76261 19.163 3.65051 18.3436 4.12957 16.2563L4.73695 13.6083C4.84816 13.108 4.6514 12.4094 4.29211 12.0471L2.17056 9.90804C0.921591 8.64874 1.32366 7.3722 3.0688 7.07894L5.79772 6.6218C6.25111 6.54417 6.79861 6.13878 7.00392 5.71614L8.50953 2.68003C9.33077 1.0326 10.6653 1.0326 11.478 2.68003Z" stroke="#B2B2B2" stroke-width="1.5" stroke-linecap="round" stroke-linejoin="round"/>
</svg>
